<svg xmlns="http://www.w3.org/2000/svg" xmlns:xlink="http://www.w3.org/1999/xlink" width="75" zoomAndPan="magnify" viewBox="0 0 56.25 56.249997" height="75" preserveAspectRatio="xMidYMid meet" version="1.0"><defs><g/><clipPath id="410ff4f1ab"><path d="M 27 5.550781 L 36 5.550781 L 36 12 L 27 12 Z M 27 5.550781 " clip-rule="nonzero"/></clipPath><clipPath id="7984131c61"><path d="M 19.554688 40.902344 L 28.304688 40.902344 L 28.304688 47.390625 L 19.554688 47.390625 Z M 19.554688 40.902344 " clip-rule="nonzero"/></clipPath></defs><path fill="#ff3131" d="M 41.816406 11.234375 L 31.996094 15.96875 C 29.613281 17.121094 28.34375 19.621094 28.621094 22.113281 L 43.582031 14.894531 C 44.582031 14.414062 45.785156 14.835938 46.269531 15.832031 L 47.605469 18.601562 C 48.085938 19.601562 47.664062 20.808594 46.667969 21.289062 L 31.703125 28.507812 C 33.480469 30.273438 36.230469 30.839844 38.617188 29.6875 L 48.433594 24.953125 C 51.457031 23.492188 52.726562 19.859375 51.265625 16.835938 L 49.929688 14.066406 C 48.472656 11.042969 44.839844 9.773438 41.816406 11.234375 Z M 9.242188 37.109375 L 7.90625 34.339844 C 7.421875 33.339844 7.84375 32.136719 8.84375 31.652344 L 23.804688 24.4375 C 22.027344 22.671875 19.277344 22.105469 16.894531 23.253906 L 7.078125 27.992188 C 4.050781 29.449219 2.785156 33.082031 4.242188 36.105469 L 5.578125 38.875 C 7.035156 41.898438 10.671875 43.167969 13.695312 41.710938 L 23.511719 36.972656 C 25.898438 35.824219 27.164062 33.320312 26.890625 30.828125 L 11.929688 38.046875 C 10.929688 38.527344 9.722656 38.109375 9.242188 37.109375 " fill-opacity="1" fill-rule="nonzero"/><path fill="#ff3131" d="M 38.21875 22.027344 C 38.414062 22.433594 38.441406 22.902344 38.292969 23.328125 C 38.144531 23.753906 37.832031 24.101562 37.425781 24.296875 L 20.03125 32.6875 C 19.625 32.882812 19.160156 32.910156 18.734375 32.761719 C 18.308594 32.613281 17.960938 32.300781 17.765625 31.894531 L 17.292969 30.914062 C 16.882812 30.070312 17.238281 29.054688 18.082031 28.648438 L 35.476562 20.253906 C 36.320312 19.847656 37.335938 20.203125 37.746094 21.046875 L 38.21875 22.027344 " fill-opacity="1" fill-rule="nonzero"/><path fill="#ff3131" d="M 11.003906 23.925781 C 10.886719 23.984375 10.746094 24.003906 10.605469 23.980469 C 10.25 23.914062 10.015625 23.574219 10.082031 23.21875 C 11.125 17.585938 14.808594 12.746094 19.9375 10.269531 C 23.359375 8.621094 27.136719 8.101562 30.867188 8.765625 C 31.21875 8.832031 31.457031 9.167969 31.394531 9.523438 C 31.328125 9.875 30.988281 10.113281 30.636719 10.050781 C 27.179688 9.433594 23.675781 9.914062 20.503906 11.445312 C 15.746094 13.738281 12.332031 18.230469 11.363281 23.457031 C 11.324219 23.667969 11.1875 23.839844 11.003906 23.925781 " fill-opacity="1" fill-rule="nonzero"/><g clip-path="url(#410ff4f1ab)"><path fill="#ff3131" d="M 29.28125 5.550781 L 29.632812 9.207031 L 27.242188 11.996094 L 35.902344 11.191406 L 29.28125 5.550781 " fill-opacity="1" fill-rule="nonzero"/></g><path fill="#ff3131" d="M 35.570312 42.671875 C 32.152344 44.320312 28.375 44.84375 24.644531 44.175781 C 24.289062 44.113281 24.054688 43.773438 24.117188 43.421875 C 24.179688 43.066406 24.515625 42.832031 24.875 42.894531 C 28.332031 43.507812 31.835938 43.027344 35.003906 41.5 C 39.761719 39.203125 43.179688 34.710938 44.144531 29.488281 C 44.210938 29.132812 44.550781 28.898438 44.90625 28.964844 C 45.261719 29.03125 45.496094 29.371094 45.429688 29.726562 C 44.386719 35.359375 40.699219 40.199219 35.570312 42.671875 " fill-opacity="1" fill-rule="nonzero"/><g clip-path="url(#7984131c61)"><path fill="#ff3131" d="M 26.226562 47.390625 L 25.878906 43.734375 L 28.265625 40.945312 L 19.605469 41.753906 L 26.226562 47.390625 " fill-opacity="1" fill-rule="nonzero"/></g><g fill="#ffffff" fill-opacity="1"><g transform="translate(7.216284, 3.256578)"><g><path d="M 4.0625 0 L 3.171875 0 L 2.859375 -0.96875 L 1.234375 -0.96875 L 0.921875 0 L 0.0625 0 L 1.53125 -4.234375 L 2.59375 -4.234375 Z M 2.015625 -3.34375 L 1.46875 -1.671875 L 2.625 -1.671875 L 2.078125 -3.34375 Z M 2.015625 -3.34375 "/></g></g><g transform="translate(11.336157, 3.256578)"><g><path d="M 1.578125 0.0625 C 1.328125 0.0625 1.101562 0 0.90625 -0.125 C 0.707031 -0.25 0.550781 -0.429688 0.4375 -0.671875 C 0.332031 -0.921875 0.28125 -1.226562 0.28125 -1.59375 C 0.28125 -1.957031 0.335938 -2.265625 0.453125 -2.515625 C 0.566406 -2.765625 0.722656 -2.945312 0.921875 -3.0625 C 1.117188 -3.1875 1.347656 -3.25 1.609375 -3.25 C 1.816406 -3.25 1.988281 -3.210938 2.125 -3.140625 C 2.269531 -3.078125 2.394531 -2.972656 2.5 -2.828125 L 2.5625 -2.84375 L 2.5625 -4.46875 L 3.359375 -4.46875 L 3.359375 0 L 2.5625 0 L 2.5625 -0.40625 L 2.5 -0.421875 C 2.414062 -0.273438 2.296875 -0.15625 2.140625 -0.0625 C 1.984375 0.0195312 1.796875 0.0625 1.578125 0.0625 Z M 1.84375 -0.625 C 2.0625 -0.625 2.234375 -0.703125 2.359375 -0.859375 C 2.492188 -1.023438 2.5625 -1.269531 2.5625 -1.59375 C 2.5625 -1.914062 2.492188 -2.160156 2.359375 -2.328125 C 2.234375 -2.492188 2.0625 -2.578125 1.84375 -2.578125 C 1.601562 -2.578125 1.421875 -2.492188 1.296875 -2.328125 C 1.171875 -2.171875 1.109375 -1.925781 1.109375 -1.59375 C 1.109375 -1.257812 1.171875 -1.015625 1.296875 -0.859375 C 1.421875 -0.703125 1.601562 -0.625 1.84375 -0.625 Z M 1.84375 -0.625 "/></g></g><g transform="translate(15.158242, 3.256578)"><g><path d="M 1.578125 0.0625 C 1.328125 0.0625 1.101562 0 0.90625 -0.125 C 0.707031 -0.25 0.550781 -0.429688 0.4375 -0.671875 C 0.332031 -0.921875 0.28125 -1.226562 0.28125 -1.59375 C 0.28125 -1.957031 0.335938 -2.265625 0.453125 -2.515625 C 0.566406 -2.765625 0.722656 -2.945312 0.921875 -3.0625 C 1.117188 -3.1875 1.347656 -3.25 1.609375 -3.25 C 1.816406 -3.25 1.988281 -3.210938 2.125 -3.140625 C 2.269531 -3.078125 2.394531 -2.972656 2.5 -2.828125 L 2.5625 -2.84375 L 2.5625 -4.46875 L 3.359375 -4.46875 L 3.359375 0 L 2.5625 0 L 2.5625 -0.40625 L 2.5 -0.421875 C 2.414062 -0.273438 2.296875 -0.15625 2.140625 -0.0625 C 1.984375 0.0195312 1.796875 0.0625 1.578125 0.0625 Z M 1.84375 -0.625 C 2.0625 -0.625 2.234375 -0.703125 2.359375 -0.859375 C 2.492188 -1.023438 2.5625 -1.269531 2.5625 -1.59375 C 2.5625 -1.914062 2.492188 -2.160156 2.359375 -2.328125 C 2.234375 -2.492188 2.0625 -2.578125 1.84375 -2.578125 C 1.601562 -2.578125 1.421875 -2.492188 1.296875 -2.328125 C 1.171875 -2.171875 1.109375 -1.925781 1.109375 -1.59375 C 1.109375 -1.257812 1.171875 -1.015625 1.296875 -0.859375 C 1.421875 -0.703125 1.601562 -0.625 1.84375 -0.625 Z M 1.84375 -0.625 "/></g></g><g transform="translate(18.980328, 3.256578)"><g/></g><g transform="translate(20.376748, 3.256578)"><g><path d="M 1.25 0.0625 C 1.039062 0.0625 0.859375 0.0234375 0.703125 -0.046875 C 0.554688 -0.128906 0.441406 -0.238281 0.359375 -0.375 C 0.285156 -0.519531 0.25 -0.695312 0.25 -0.90625 C 0.25 -1.09375 0.285156 -1.25 0.359375 -1.375 C 0.441406 -1.507812 0.566406 -1.617188 0.734375 -1.703125 C 0.910156 -1.785156 1.132812 -1.847656 1.40625 -1.890625 C 1.59375 -1.921875 1.734375 -1.953125 1.828125 -1.984375 C 1.929688 -2.023438 2 -2.066406 2.03125 -2.109375 C 2.070312 -2.160156 2.09375 -2.222656 2.09375 -2.296875 C 2.09375 -2.390625 2.054688 -2.460938 1.984375 -2.515625 C 1.910156 -2.578125 1.789062 -2.609375 1.625 -2.609375 C 1.445312 -2.609375 1.28125 -2.566406 1.125 -2.484375 C 0.96875 -2.410156 0.828125 -2.304688 0.703125 -2.171875 L 0.65625 -2.171875 L 0.3125 -2.6875 C 0.476562 -2.863281 0.675781 -3 0.90625 -3.09375 C 1.144531 -3.195312 1.398438 -3.25 1.671875 -3.25 C 2.085938 -3.25 2.390625 -3.160156 2.578125 -2.984375 C 2.773438 -2.804688 2.875 -2.550781 2.875 -2.21875 L 2.875 -0.828125 C 2.875 -0.691406 2.9375 -0.625 3.0625 -0.625 C 3.101562 -0.625 3.148438 -0.628906 3.203125 -0.640625 L 3.234375 -0.640625 L 3.296875 -0.078125 C 3.253906 -0.046875 3.191406 -0.0195312 3.109375 0 C 3.035156 0.0078125 2.953125 0.015625 2.859375 0.015625 C 2.660156 0.015625 2.507812 -0.0195312 2.40625 -0.09375 C 2.300781 -0.164062 2.222656 -0.28125 2.171875 -0.4375 L 2.109375 -0.4375 C 1.953125 -0.101562 1.664062 0.0625 1.25 0.0625 Z M 1.5 -0.53125 C 1.6875 -0.53125 1.832031 -0.59375 1.9375 -0.71875 C 2.050781 -0.84375 2.109375 -1.019531 2.109375 -1.25 L 2.109375 -1.5625 L 2.046875 -1.578125 C 2.003906 -1.535156 1.941406 -1.5 1.859375 -1.46875 C 1.785156 -1.445312 1.675781 -1.425781 1.53125 -1.40625 C 1.351562 -1.375 1.222656 -1.320312 1.140625 -1.25 C 1.066406 -1.1875 1.03125 -1.085938 1.03125 -0.953125 C 1.03125 -0.816406 1.070312 -0.710938 1.15625 -0.640625 C 1.238281 -0.566406 1.351562 -0.53125 1.5 -0.53125 Z M 1.5 -0.53125 "/></g></g><g transform="translate(23.739143, 3.256578)"><g/></g><g transform="translate(25.135563, 3.256578)"><g><path d="M 0.453125 0 L 0.453125 -4.46875 L 1.265625 -4.46875 L 1.265625 -2.765625 L 1.328125 -2.765625 C 1.429688 -2.921875 1.554688 -3.039062 1.703125 -3.125 C 1.859375 -3.207031 2.046875 -3.25 2.265625 -3.25 C 2.972656 -3.25 3.328125 -2.847656 3.328125 -2.046875 L 3.328125 0 L 2.53125 0 L 2.53125 -1.953125 C 2.53125 -2.171875 2.484375 -2.328125 2.390625 -2.421875 C 2.304688 -2.523438 2.171875 -2.578125 1.984375 -2.578125 C 1.765625 -2.578125 1.585938 -2.5 1.453125 -2.34375 C 1.328125 -2.195312 1.265625 -1.96875 1.265625 -1.65625 L 1.265625 0 Z M 0.453125 0 "/></g></g><g transform="translate(28.870914, 3.256578)"><g><path d="M 3.15625 -1.40625 L 1.109375 -1.40625 C 1.128906 -1.132812 1.207031 -0.9375 1.34375 -0.8125 C 1.476562 -0.6875 1.660156 -0.625 1.890625 -0.625 C 2.078125 -0.625 2.222656 -0.65625 2.328125 -0.71875 C 2.441406 -0.789062 2.535156 -0.894531 2.609375 -1.03125 L 2.671875 -1.03125 L 3.203125 -0.6875 C 3.097656 -0.46875 2.941406 -0.285156 2.734375 -0.140625 C 2.523438 -0.00390625 2.242188 0.0625 1.890625 0.0625 C 1.554688 0.0625 1.269531 0 1.03125 -0.125 C 0.789062 -0.25 0.601562 -0.4375 0.46875 -0.6875 C 0.34375 -0.9375 0.28125 -1.238281 0.28125 -1.59375 C 0.28125 -1.957031 0.347656 -2.265625 0.484375 -2.515625 C 0.628906 -2.765625 0.816406 -2.945312 1.046875 -3.0625 C 1.273438 -3.1875 1.535156 -3.25 1.828125 -3.25 C 2.285156 -3.25 2.632812 -3.128906 2.875 -2.890625 C 3.113281 -2.648438 3.234375 -2.300781 3.234375 -1.84375 C 3.234375 -1.675781 3.226562 -1.546875 3.21875 -1.453125 Z M 2.46875 -1.9375 C 2.457031 -2.175781 2.398438 -2.347656 2.296875 -2.453125 C 2.191406 -2.566406 2.035156 -2.625 1.828125 -2.625 C 1.421875 -2.625 1.1875 -2.394531 1.125 -1.9375 Z M 2.46875 -1.9375 "/></g></g><g transform="translate(32.33739, 3.256578)"><g><path d="M 1.25 0.0625 C 1.039062 0.0625 0.859375 0.0234375 0.703125 -0.046875 C 0.554688 -0.128906 0.441406 -0.238281 0.359375 -0.375 C 0.285156 -0.519531 0.25 -0.695312 0.25 -0.90625 C 0.25 -1.09375 0.285156 -1.25 0.359375 -1.375 C 0.441406 -1.507812 0.566406 -1.617188 0.734375 -1.703125 C 0.910156 -1.785156 1.132812 -1.847656 1.40625 -1.890625 C 1.59375 -1.921875 1.734375 -1.953125 1.828125 -1.984375 C 1.929688 -2.023438 2 -2.066406 2.03125 -2.109375 C 2.070312 -2.160156 2.09375 -2.222656 2.09375 -2.296875 C 2.09375 -2.390625 2.054688 -2.460938 1.984375 -2.515625 C 1.910156 -2.578125 1.789062 -2.609375 1.625 -2.609375 C 1.445312 -2.609375 1.28125 -2.566406 1.125 -2.484375 C 0.96875 -2.410156 0.828125 -2.304688 0.703125 -2.171875 L 0.65625 -2.171875 L 0.3125 -2.6875 C 0.476562 -2.863281 0.675781 -3 0.90625 -3.09375 C 1.144531 -3.195312 1.398438 -3.25 1.671875 -3.25 C 2.085938 -3.25 2.390625 -3.160156 2.578125 -2.984375 C 2.773438 -2.804688 2.875 -2.550781 2.875 -2.21875 L 2.875 -0.828125 C 2.875 -0.691406 2.9375 -0.625 3.0625 -0.625 C 3.101562 -0.625 3.148438 -0.628906 3.203125 -0.640625 L 3.234375 -0.640625 L 3.296875 -0.078125 C 3.253906 -0.046875 3.191406 -0.0195312 3.109375 0 C 3.035156 0.0078125 2.953125 0.015625 2.859375 0.015625 C 2.660156 0.015625 2.507812 -0.0195312 2.40625 -0.09375 C 2.300781 -0.164062 2.222656 -0.28125 2.171875 -0.4375 L 2.109375 -0.4375 C 1.953125 -0.101562 1.664062 0.0625 1.25 0.0625 Z M 1.5 -0.53125 C 1.6875 -0.53125 1.832031 -0.59375 1.9375 -0.71875 C 2.050781 -0.84375 2.109375 -1.019531 2.109375 -1.25 L 2.109375 -1.5625 L 2.046875 -1.578125 C 2.003906 -1.535156 1.941406 -1.5 1.859375 -1.46875 C 1.785156 -1.445312 1.675781 -1.425781 1.53125 -1.40625 C 1.351562 -1.375 1.222656 -1.320312 1.140625 -1.25 C 1.066406 -1.1875 1.03125 -1.085938 1.03125 -0.953125 C 1.03125 -0.816406 1.070312 -0.710938 1.15625 -0.640625 C 1.238281 -0.566406 1.351562 -0.53125 1.5 -0.53125 Z M 1.5 -0.53125 "/></g></g><g transform="translate(35.699784, 3.256578)"><g><path d="M 1.578125 0.0625 C 1.328125 0.0625 1.101562 0 0.90625 -0.125 C 0.707031 -0.25 0.550781 -0.429688 0.4375 -0.671875 C 0.332031 -0.921875 0.28125 -1.226562 0.28125 -1.59375 C 0.28125 -1.957031 0.335938 -2.265625 0.453125 -2.515625 C 0.566406 -2.765625 0.722656 -2.945312 0.921875 -3.0625 C 1.117188 -3.1875 1.347656 -3.25 1.609375 -3.25 C 1.816406 -3.25 1.988281 -3.210938 2.125 -3.140625 C 2.269531 -3.078125 2.394531 -2.972656 2.5 -2.828125 L 2.5625 -2.84375 L 2.5625 -4.46875 L 3.359375 -4.46875 L 3.359375 0 L 2.5625 0 L 2.5625 -0.40625 L 2.5 -0.421875 C 2.414062 -0.273438 2.296875 -0.15625 2.140625 -0.0625 C 1.984375 0.0195312 1.796875 0.0625 1.578125 0.0625 Z M 1.84375 -0.625 C 2.0625 -0.625 2.234375 -0.703125 2.359375 -0.859375 C 2.492188 -1.023438 2.5625 -1.269531 2.5625 -1.59375 C 2.5625 -1.914062 2.492188 -2.160156 2.359375 -2.328125 C 2.234375 -2.492188 2.0625 -2.578125 1.84375 -2.578125 C 1.601562 -2.578125 1.421875 -2.492188 1.296875 -2.328125 C 1.171875 -2.171875 1.109375 -1.925781 1.109375 -1.59375 C 1.109375 -1.257812 1.171875 -1.015625 1.296875 -0.859375 C 1.421875 -0.703125 1.601562 -0.625 1.84375 -0.625 Z M 1.84375 -0.625 "/></g></g><g transform="translate(39.52187, 3.256578)"><g><path d="M 0.859375 -3.578125 C 0.710938 -3.578125 0.59375 -3.617188 0.5 -3.703125 C 0.414062 -3.785156 0.375 -3.898438 0.375 -4.046875 C 0.375 -4.179688 0.414062 -4.289062 0.5 -4.375 C 0.59375 -4.46875 0.710938 -4.515625 0.859375 -4.515625 C 0.953125 -4.515625 1.035156 -4.492188 1.109375 -4.453125 C 1.191406 -4.410156 1.253906 -4.351562 1.296875 -4.28125 C 1.335938 -4.207031 1.359375 -4.128906 1.359375 -4.046875 C 1.359375 -3.953125 1.335938 -3.867188 1.296875 -3.796875 C 1.253906 -3.722656 1.191406 -3.664062 1.109375 -3.625 C 1.035156 -3.59375 0.953125 -3.578125 0.859375 -3.578125 Z M 0.453125 0 L 0.453125 -3.1875 L 1.265625 -3.1875 L 1.265625 0 Z M 0.453125 0 "/></g></g><g transform="translate(41.239207, 3.256578)"><g><path d="M 0.453125 0 L 0.453125 -3.1875 L 1.234375 -3.1875 L 1.234375 -2.71875 L 1.296875 -2.703125 C 1.492188 -3.066406 1.8125 -3.25 2.25 -3.25 C 2.625 -3.25 2.894531 -3.148438 3.0625 -2.953125 C 3.238281 -2.753906 3.328125 -2.460938 3.328125 -2.078125 L 3.328125 0 L 2.53125 0 L 2.53125 -1.96875 C 2.53125 -2.1875 2.484375 -2.34375 2.390625 -2.4375 C 2.304688 -2.53125 2.171875 -2.578125 1.984375 -2.578125 C 1.753906 -2.578125 1.578125 -2.5 1.453125 -2.34375 C 1.328125 -2.195312 1.265625 -1.96875 1.265625 -1.65625 L 1.265625 0 Z M 0.453125 0 "/></g></g><g transform="translate(44.974558, 3.256578)"><g><path d="M 1.65625 1.359375 C 1.125 1.359375 0.734375 1.28125 0.484375 1.125 C 0.234375 0.96875 0.109375 0.753906 0.109375 0.484375 C 0.109375 0.304688 0.160156 0.164062 0.265625 0.0625 C 0.378906 -0.0390625 0.535156 -0.113281 0.734375 -0.15625 L 0.734375 -0.21875 C 0.628906 -0.28125 0.550781 -0.347656 0.5 -0.421875 C 0.457031 -0.503906 0.4375 -0.597656 0.4375 -0.703125 C 0.4375 -0.960938 0.601562 -1.132812 0.9375 -1.21875 L 0.9375 -1.28125 C 0.757812 -1.382812 0.625 -1.507812 0.53125 -1.65625 C 0.445312 -1.800781 0.40625 -1.976562 0.40625 -2.1875 C 0.40625 -2.394531 0.453125 -2.578125 0.546875 -2.734375 C 0.648438 -2.898438 0.796875 -3.023438 0.984375 -3.109375 C 1.171875 -3.203125 1.394531 -3.25 1.65625 -3.25 C 1.925781 -3.25 2.140625 -3.203125 2.296875 -3.109375 C 2.398438 -3.253906 2.457031 -3.421875 2.46875 -3.609375 L 2.53125 -3.640625 L 3.109375 -3.5 C 3.085938 -3.34375 3.039062 -3.210938 2.96875 -3.109375 C 2.894531 -3.015625 2.785156 -2.925781 2.640625 -2.84375 L 2.640625 -2.78125 C 2.816406 -2.625 2.90625 -2.398438 2.90625 -2.109375 C 2.90625 -1.921875 2.851562 -1.75 2.75 -1.59375 C 2.65625 -1.4375 2.515625 -1.3125 2.328125 -1.21875 C 2.140625 -1.125 1.914062 -1.078125 1.65625 -1.078125 L 1.546875 -1.078125 C 1.460938 -1.085938 1.40625 -1.09375 1.375 -1.09375 C 1.300781 -1.09375 1.242188 -1.070312 1.203125 -1.03125 C 1.160156 -0.988281 1.140625 -0.9375 1.140625 -0.875 C 1.140625 -0.8125 1.164062 -0.757812 1.21875 -0.71875 C 1.28125 -0.6875 1.363281 -0.664062 1.46875 -0.65625 L 2.171875 -0.640625 C 2.878906 -0.609375 3.234375 -0.300781 3.234375 0.28125 C 3.234375 0.488281 3.179688 0.671875 3.078125 0.828125 C 2.972656 0.984375 2.800781 1.109375 2.5625 1.203125 C 2.332031 1.304688 2.03125 1.359375 1.65625 1.359375 Z M 1.65625 -1.640625 C 1.8125 -1.640625 1.929688 -1.6875 2.015625 -1.78125 C 2.109375 -1.875 2.15625 -2.003906 2.15625 -2.171875 C 2.15625 -2.335938 2.109375 -2.460938 2.015625 -2.546875 C 1.929688 -2.640625 1.8125 -2.6875 1.65625 -2.6875 C 1.5 -2.6875 1.378906 -2.640625 1.296875 -2.546875 C 1.210938 -2.460938 1.171875 -2.335938 1.171875 -2.171875 C 1.171875 -1.992188 1.210938 -1.859375 1.296875 -1.765625 C 1.378906 -1.679688 1.5 -1.640625 1.65625 -1.640625 Z M 1.65625 0.765625 C 1.925781 0.765625 2.125 0.726562 2.25 0.65625 C 2.375 0.582031 2.4375 0.484375 2.4375 0.359375 C 2.4375 0.253906 2.40625 0.175781 2.34375 0.125 C 2.28125 0.0820312 2.175781 0.0625 2.03125 0.0625 L 1.40625 0.03125 C 1.382812 0.03125 1.363281 0.0234375 1.34375 0.015625 C 1.332031 0.015625 1.316406 0.015625 1.296875 0.015625 C 1.160156 0.015625 1.054688 0.046875 0.984375 0.109375 C 0.910156 0.171875 0.875 0.25 0.875 0.34375 C 0.875 0.476562 0.9375 0.582031 1.0625 0.65625 C 1.195312 0.726562 1.394531 0.765625 1.65625 0.765625 Z M 1.65625 0.765625 "/></g></g></g></svg>